<svg viewBox="0 0 112 112" fill="none" xmlns="http://www.w3.org/2000/svg">
  <path fill-rule="evenodd" clip-rule="evenodd" d="M43.205 8.015c5.343-10.687 20.594-10.687 25.938 0l41.655 83.31c4.82 9.642-2.19 20.985-12.97 20.985h-83.31C3.74 112.31-3.27 100.967 1.55 91.326zm21.466 2.236c-3.501-7.001-13.493-7.001-16.994 0L6.022 93.562c-3.159 6.317 1.435 13.749 8.497 13.749h83.31c7.062 0 11.655-7.432 8.497-13.749z" fill="#EF5C0A"/>
  <path fill-rule="evenodd" clip-rule="evenodd" d="M54.174 110.239v-56h5v56z" fill="#EF5C0A"/>
  <path d="M56.174 71.239c9.113 0 16.5-7.612 16.5-17 0-9.39-7.388-17-16.5-17s-16.5 7.61-16.5 17c0 9.388 7.387 17 16.5 17" fill="url(#a)"/>
  <defs>
    <linearGradient id="a" x1="45.674" y1="43.739" x2="79.674" y2="67.239" gradientUnits="userSpaceOnUse">
      <stop stop-color="#F9965E"/>
      <stop offset="1" stop-color="#7D4120"/>
    </linearGradient>
  </defs>
</svg>
